<?xml version="1.0"?>
<svg xmlns="http://www.w3.org/2000/svg" xmlns:xlink="http://www.w3.org/1999/xlink" xmlns:svgjs="http://svgjs.com/svgjs" version="1.1" width="512" height="512" x="0" y="0" viewBox="0 0 512 512" style="enable-background:new 0 0 512 512" xml:space="preserve" class=""><g><g xmlns="http://www.w3.org/2000/svg"><path d="m504.5 212.26v226.4c0 17.35-14.06 31.41-31.41 31.41h-434.18c-17.35 0-31.41-14.06-31.41-31.41v-226.4c0-7.2 5.84-13.04 13.04-13.04h470.92c7.2 0 13.04 5.84 13.04 13.04z" fill="#dcf3ff" data-original="#dcf3ff" style="" class=""/><path d="m504.5 212.26v226.4c0 17.35-14.06 31.41-31.41 31.41h-27c17.35 0 31.41-14.06 31.41-31.41v-226.4c0-7.2-5.84-13.04-13.04-13.04h27c7.2 0 13.04 5.84 13.04 13.04z" fill="#07689f" data-original="#9bc9e0" style="" class=""/><path d="m504.5 212.26v27.04h-497v-27.04c0-7.2 5.84-13.04 13.04-13.04h470.92c7.2 0 13.04 5.84 13.04 13.04z" fill="#ffc93c" data-original="#325a93" style="" class=""/><path d="m504.5 212.26v27.04h-27v-27.04c0-7.2-5.84-13.04-13.04-13.04h27c7.2 0 13.04 5.84 13.04 13.04z" fill="#132d77" data-original="#132d77" style="" class=""/><path d="m227.992 169.831h55.388v29.388h-55.388z" fill="#dcf3ff" data-original="#dcf3ff" style="" class=""/><g><g><g fill="#9bc9e0"><path d="m41.804 268.752h35.388v35.388h-35.388z" fill="#07689f" data-original="#9bc9e0" style="" class=""/><path d="m238.306 268.752h35.388v35.388h-35.388z" fill="#07689f" data-original="#9bc9e0" style="" class=""/><path d="m172.435 268.752h35.388v35.388h-35.388z" fill="#07689f" data-original="#9bc9e0" style="" class=""/><path d="m107.189 268.752h35.388v35.388h-35.388z" fill="#07689f" data-original="#9bc9e0" style="" class=""/><path d="m303.694 268.752h35.388v35.388h-35.388z" fill="#07689f" data-original="#9bc9e0" style="" class=""/><path d="m41.489 334.226h35.388v35.388h-35.388z" fill="#07689f" data-original="#9bc9e0" style="" class=""/><path d="m237.992 334.226h35.388v35.388h-35.388z" fill="#07689f" data-original="#9bc9e0" style="" class=""/><path d="m172.121 334.226h35.388v35.388h-35.388z" fill="#07689f" data-original="#9bc9e0" style="" class=""/><path d="m106.875 334.226h35.388v35.388h-35.388z" fill="#07689f" data-original="#9bc9e0" style="" class=""/><path d="m41.618 399.701h35.388v35.388h-35.388z" fill="#07689f" data-original="#9bc9e0" style="" class=""/></g><path d="m404.471 417.394c0 9.77-7.93 17.7-17.7 17.7h-262.07c-4.89 0-9.32-1.98-12.52-5.19-3.2-3.2-5.18-7.62-5.18-12.51 0-9.77 7.92-17.69 17.7-17.69h262.07c4.89 0 9.31 1.98 12.51 5.18 3.21 3.2 5.19 7.62 5.19 12.51z" fill="#196996" data-original="#5fe1ff" style="" class=""/><path d="m404.471 417.394c0 9.77-7.93 17.7-17.7 17.7h-24.45c9.78 0 17.7-7.93 17.7-17.7 0-4.89-1.98-9.31-5.18-12.51s-7.63-5.18-12.52-5.18h24.45c4.89 0 9.31 1.98 12.51 5.18 3.21 3.2 5.19 7.62 5.19 12.51z" fill="#3eb6ff" data-original="#3eb6ff" style=""/><path d="m303.38 334.226h35.388v35.388h-35.388z" fill="#07689f" data-original="#9bc9e0" style="" class=""/><path d="m369.08 334.226h35.388v35.388h-35.388z" fill="#07689f" data-original="#9bc9e0" style="" class=""/><path d="m434.325 334.226h35.388v100.863h-35.388z" fill="#196996" data-original="#5fe1ff" style="" class=""/><path d="m369.08 268.752h100.634v35.388h-100.634z" fill="#196996" data-original="#5fe1ff" style="" class=""/><path d="m447.427 268.752h22.286v35.388h-22.286z" fill="#3eb6ff" data-original="#3eb6ff" style=""/></g><path d="m452.019 334.226h17.295v100.863h-17.295z" fill="#3eb6ff" data-original="#3eb6ff" style=""/></g></g><g xmlns="http://www.w3.org/2000/svg"><path d="m491.459 191.719h-200.579v-21.888c0-4.142-3.358-7.5-7.5-7.5h-19.88v-30.934c0-10.654 8.667-19.322 19.322-19.322 18.925 0 34.322-15.396 34.322-34.322v-35.821c0-4.142-3.358-7.5-7.5-7.5s-7.5 3.358-7.5 7.5v35.822c0 10.654-8.667 19.322-19.322 19.322-18.925 0-34.322 15.396-34.322 34.322v30.934h-20.508c-4.142 0-7.5 3.358-7.5 7.5v21.888h-125.808c-4.142 0-7.5 3.358-7.5 7.5s3.358 7.5 7.5 7.5h396.775c3.055 0 5.541 2.486 5.541 5.541v19.535h-482v-19.536c0-3.055 2.486-5.541 5.541-5.541h38.957c4.142 0 7.5-3.358 7.5-7.5s-3.358-7.5-7.5-7.5h-38.957c-11.326 0-20.541 9.215-20.541 20.541v226.399c0 21.454 17.455 38.909 38.909 38.909h89.689c4.142 0 7.5-3.358 7.5-7.5s-3.358-7.5-7.5-7.5h-89.689c-13.183 0-23.909-10.726-23.909-23.909v-191.864h482v191.864c0 13.183-10.726 23.909-23.909 23.909h-309.326c-4.142 0-7.5 3.358-7.5 7.5s3.358 7.5 7.5 7.5h309.326c21.455 0 38.909-17.455 38.909-38.909v-226.399c0-11.326-9.215-20.541-20.541-20.541zm-255.967 0v-14.388h40.388v14.388z" fill="#000000" data-original="#000000" style="" class=""/><path d="m84.692 268.751c0-4.142-3.358-7.5-7.5-7.5h-35.388c-4.142 0-7.5 3.358-7.5 7.5v35.388c0 4.142 3.358 7.5 7.5 7.5h35.388c4.142 0 7.5-3.358 7.5-7.5zm-15 27.889h-20.388v-20.388h20.388z" fill="#000000" data-original="#000000" style="" class=""/><path d="m238.306 311.64h35.388c4.142 0 7.5-3.358 7.5-7.5v-35.388c0-4.142-3.358-7.5-7.5-7.5h-35.388c-4.142 0-7.5 3.358-7.5 7.5v35.388c0 4.142 3.358 7.5 7.5 7.5zm7.5-35.389h20.388v20.388h-20.388z" fill="#000000" data-original="#000000" style="" class=""/><path d="m172.435 311.64h35.388c4.142 0 7.5-3.358 7.5-7.5v-35.388c0-4.142-3.358-7.5-7.5-7.5h-35.388c-4.142 0-7.5 3.358-7.5 7.5v35.388c0 4.142 3.357 7.5 7.5 7.5zm7.5-35.389h20.388v20.388h-20.388z" fill="#000000" data-original="#000000" style="" class=""/><path d="m107.189 311.64h35.388c4.142 0 7.5-3.358 7.5-7.5v-35.388c0-4.142-3.358-7.5-7.5-7.5h-35.388c-4.142 0-7.5 3.358-7.5 7.5v35.388c0 4.142 3.358 7.5 7.5 7.5zm7.5-35.389h20.388v20.388h-20.388z" fill="#000000" data-original="#000000" style="" class=""/><path d="m303.694 311.64h35.388c4.142 0 7.5-3.358 7.5-7.5v-35.388c0-4.142-3.358-7.5-7.5-7.5h-35.388c-4.142 0-7.5 3.358-7.5 7.5v35.388c0 4.142 3.358 7.5 7.5 7.5zm7.5-35.389h20.388v20.388h-20.388z" fill="#000000" data-original="#000000" style="" class=""/><path d="m41.489 377.115h35.388c4.142 0 7.5-3.358 7.5-7.5v-35.388c0-4.142-3.358-7.5-7.5-7.5h-35.388c-4.142 0-7.5 3.358-7.5 7.5v35.388c0 4.142 3.358 7.5 7.5 7.5zm7.5-35.388h20.388v20.388h-20.388z" fill="#000000" data-original="#000000" style="" class=""/><path d="m230.492 369.615c0 4.142 3.358 7.5 7.5 7.5h35.388c4.142 0 7.5-3.358 7.5-7.5v-35.388c0-4.142-3.358-7.5-7.5-7.5h-35.388c-4.142 0-7.5 3.358-7.5 7.5zm15-27.888h20.388v20.388h-20.388z" fill="#000000" data-original="#000000" style="" class=""/><path d="m164.621 369.615c0 4.142 3.358 7.5 7.5 7.5h35.388c4.142 0 7.5-3.358 7.5-7.5v-35.388c0-4.142-3.358-7.5-7.5-7.5h-35.388c-4.142 0-7.5 3.358-7.5 7.5zm15-27.888h20.388v20.388h-20.388z" fill="#000000" data-original="#000000" style="" class=""/><path d="m99.375 369.615c0 4.142 3.358 7.5 7.5 7.5h35.388c4.142 0 7.5-3.358 7.5-7.5v-35.388c0-4.142-3.358-7.5-7.5-7.5h-35.388c-4.142 0-7.5 3.358-7.5 7.5zm15-27.888h20.388v20.388h-20.388z" fill="#000000" data-original="#000000" style="" class=""/><path d="m41.618 442.589h35.388c4.142 0 7.5-3.358 7.5-7.5v-35.388c0-4.142-3.358-7.5-7.5-7.5h-35.388c-4.142 0-7.5 3.358-7.5 7.5v35.388c0 4.142 3.358 7.5 7.5 7.5zm7.5-35.388h20.388v20.388h-20.388z" fill="#000000" data-original="#000000" style="" class=""/><path d="m124.697 442.589h262.077c13.892 0 25.194-11.302 25.194-25.194s-11.302-25.194-25.194-25.194h-42.603c-4.142 0-7.5 3.358-7.5 7.5s3.358 7.5 7.5 7.5h42.603c5.621 0 10.194 4.573 10.194 10.194s-4.573 10.194-10.194 10.194h-262.077c-5.621 0-10.194-4.573-10.194-10.194s4.573-10.194 10.194-10.194h185.087c4.142 0 7.5-3.358 7.5-7.5s-3.358-7.5-7.5-7.5h-185.087c-13.892 0-25.194 11.302-25.194 25.194s11.302 25.194 25.194 25.194z" fill="#000000" data-original="#000000" style="" class=""/><path d="m295.88 369.615c0 4.142 3.358 7.5 7.5 7.5h35.388c4.142 0 7.5-3.358 7.5-7.5v-35.388c0-4.142-3.358-7.5-7.5-7.5h-35.388c-4.142 0-7.5 3.358-7.5 7.5zm15-27.888h20.388v20.388h-20.388z" fill="#000000" data-original="#000000" style="" class=""/><path d="m361.58 369.615c0 4.142 3.358 7.5 7.5 7.5h35.388c4.142 0 7.5-3.358 7.5-7.5v-35.388c0-4.142-3.358-7.5-7.5-7.5h-35.388c-4.142 0-7.5 3.358-7.5 7.5zm15-27.888h20.388v20.388h-20.388z" fill="#000000" data-original="#000000" style="" class=""/><path d="m469.713 326.727h-35.388c-4.142 0-7.5 3.358-7.5 7.5v100.863c0 4.142 3.358 7.5 7.5 7.5h35.388c4.142 0 7.5-3.358 7.5-7.5v-100.863c0-4.143-3.358-7.5-7.5-7.5zm-7.5 100.862h-20.388v-85.863h20.388z" fill="#000000" data-original="#000000" style="" class=""/><path d="m477.213 268.751c0-4.142-3.358-7.5-7.5-7.5h-100.633c-4.142 0-7.5 3.358-7.5 7.5v35.388c0 4.142 3.358 7.5 7.5 7.5h100.634c4.142 0 7.5-3.358 7.5-7.5v-35.388zm-15 27.889h-85.633v-20.388h85.634v20.388z" fill="#000000" data-original="#000000" style="" class=""/></g></g></svg>
